<svg xmlns="http://www.w3.org/2000/svg" viewBox="0 0 300 200"><defs><style>.cls-1{fill:#fff;}.cls-2{fill:#3c757a;}</style></defs><g id="レイヤー_2" data-name="レイヤー 2"><g id="レイヤー_2-2" data-name="レイヤー 2"><rect class="cls-1" width="300" height="200"/><path class="cls-2" d="M300,200H250.3s-9.89-12.24-4.69-22.14c11.46-15.36,26.05-14.58,29.17-25.52,5.67-19.84-18.34-20.05-19.33-41.14-.84-17.84,15.37-13.54,15.89-28.91s-28.13-9.63-29.17-28.9S260.92,41.93,262.74,26,250.3,0,250.3,0H300Z"/><path class="cls-2" d="M68.1,200H0V0H68.1s4.42,15.06-5.45,20.78S40.31,16.88,39.27,36.1C35.38,64.42,63.17,53,60.05,76.88s-30.13,7.54-31.69,31.43,20,15.59,27,34.81-23.12,13,3.11,44.41C65.51,192.47,68.22,199.88,68.1,200Z"/></g></g></svg>